inDegrees=yes
name=ik_S46_A10_T02
DataType=double
version=3
OpenSimVersion=4.3-2021-08-27-4bc7ad9
endheader
time	pelvis_tilt	pelvis_list	pelvis_rotation	pelvis_tx	pelvis_ty	pelvis_tz	hip_flexion_r	hip_adduction_r	hip_rotation_r	knee_angle_r	knee_angle_r_beta	ankle_angle_r	subtalar_angle_r	mtp_angle_r	hip_flexion_l	hip_adduction_l	hip_rotation_l	knee_angle_l	knee_angle_l_beta	ankle_angle_l	subtalar_angle_l	mtp_angle_l	lumbar_extension	lumbar_bending	lumbar_rotation	arm_flex_r	arm_add_r	arm_rot_r	elbow_flex_r	pro_sup_r	wrist_flex_r	wrist_dev_r	arm_flex_l	arm_add_l	arm_rot_l	elbow_flex_l	pro_sup_l	wrist_flex_l	wrist_dev_l
14.93999999999977	0.1857710981651091	-2.62501907879552	41.28683904814944	0	0.9399999999999999	0	44.75560370454978	-9.999965246853856	-9.999011292031289	54.45942194338315	0.9504962216448849	0	0	0	44.75560370454978	-9.999965246853856	-9.999011292031289	54.45942194338315	0.9504962216448849	0	0	0	-1.564840627568524	-1.33898124038776	0.177493821191342	67.09280608888382	-9.453896398407506	22.42370362561671	57.10345237416595	19.23279975460115	0	0	76.21609243640421	6.22821360999757	-1.743409093419522	32.19143311263167	45.42384466460545	0	0
14.95999999999977	0.2115884954342714	-2.73175233226032	41.54610536818478	0	0.9399999999999999	0	44.75885864992866	-9.999966363152739	-9.999034658522715	54.46575138844594	0.9506066913010547	0	0	0	44.75885864992866	-9.999966363152739	-9.999034658522715	54.46575138844594	0.9506066913010547	0	0	0	-1.624609327285778	-1.443784265359669	0.2483577609411444	70.90144561020001	-8.584847935321992	21.58721060961767	56.04659923907533	18.49766929904472	0	0	80.33160779043952	6.200084179960191	-1.054852425088366	35.4167561572104	42.25640896039523	0	0
14.97999999999977	0.2566231144617282	-2.792846130669545	41.75839883829896	0	0.9399999999999999	0	44.76100393789508	-9.999967076530424	-9.999049813018029	54.46992608049322	0.9506795534225365	0	0	0	44.76100393789508	-9.999967076530424	-9.999049813018029	54.46992608049322	0.9506795534225365	0	0	0	-1.629619608808064	-1.552484666844495	0.3332233345699268	74.1575058200159	-8.928520349730601	22.5318880644205	57.46208291569813	16.31304703786397	0	0	84.16201831892965	6.13248910906133	0.770500040138101	37.64166260422433	38.86636426052607	0	0
14.99999999999977	0.4442953530285708	-2.684855152641056	41.92567589259451	0	0.9399999999999999	0	44.76298596848874	-9.999967709309786	-9.999063506808799	54.4738218584439	0.9507475475747025	0	0	0	44.76298596848874	-9.999967709309786	-9.999063506808799	54.4738218584439	0.9507475475747025	0	0	0	-1.413173425493143	-1.588941806921221	0.217173747831952	76.57085943677606	-9.453092033710309	25.23293174982798	57.13773309589	13.49630628021164	0	0	83.83222599195841	5.652049767977219	0.7034934524292237	41.52674765443809	39.57364599606588	0	0
15.01999999999977	0.537783027277468	-2.594757207477802	41.87644899536158	0	0.9399999999999999	0	44.76494014424211	-9.999968327787558	-9.999076941275904	54.47766446196582	0.9508146136580088	0	0	0	44.76494014424211	-9.999968327787558	-9.999076941275904	54.47766446196582	0.9508146136580088	0	0	0	-1.282765492226082	-1.58425756061435	0.2150948350015261	79.22265129745976	-10.36405376406815	27.16207215756807	58.83731736384106	12.13268078910338	0	0	86.82356285902378	5.486206799471729	2.276715978466957	42.28929298720625	38.19465736845181	0	0
15.03999999999977	0.7099151621072521	-2.41568399457599	41.82338640927797	0	0.9399999999999999	0	44.76546834927997	-9.999968501969118	-9.999080659902676	54.47867861633806	0.9508323139909278	0	0	0	44.76546834927997	-9.999968501969118	-9.999080659902676	54.47867861633806	0.9508323139909278	0	0	0	-1.034303233258018	-1.5626312509847	0.1881172297956113	80.9569156787293	-11.0403489432702	28.77674859371171	58.34068882261903	10.76094194353145	0	0	88.72545565057813	5.49657493481	3.482310145079296	40.25282639230983	36.60965229496833	0	0
15.05999999999977	0.9599186816343481	-2.120665532654311	41.77792699426978	0	0.9399999999999999	0	44.76926889205011	-9.999969715888392	-9.999106956203136	54.48604874929284	0.9509609470772985	0	0	0	44.76926889205011	-9.999969715888392	-9.999106956203136	54.48604874929284	0.9509609470772985	0	0	0	-0.6525911078382201	-1.509603953037725	0.1591280309221782	82.07946615081494	-11.71813104431935	29.09520658974755	58.66945138710186	12.58818234073688	0	0	90.37849401893287	4.397421281704617	2.417561381416601	44.02531637068341	36.03280194134948	0	0
15.07999999999977	1.034295628150797	-2.026693708444335	41.74222786172187	0	0.9399999999999999	0	44.77077715413976	-9.999970177991273	-9.999117140704767	54.48901906552798	0.9510127888754272	0	0	0	44.77077715413976	-9.999970177991273	-9.999117140704767	54.48901906552798	0.9510127888754272	0	0	0	-0.5356364891391581	-1.490314939385805	0.09687674263855368	83.15350218365411	-12.11563451806326	29.03673448577977	58.38803486631632	12.58234116433126	0	0	92.04710333854121	3.675138075268937	1.355536536974426	44.63526061708881	36.49378265659781	0	0
15.09999999999977	1.240595151478573	-1.794776836441162	41.59506790842684	0	0.9399999999999999	0	44.7721630536859	-9.999970610501355	-9.999126596617101	54.49171990552492	0.9510599274259434	0	0	0	44.7721630536859	-9.999970610501355	-9.999126596617101	54.49171990552492	0.9510599274259434	0	0	0	-0.2295928194132235	-1.455093703425762	0.0045323852278886	83.59542944367918	-12.30833701899826	28.96029586014774	58.39499085752575	12.95185734734716	0	0	92.79146739551636	2.964745214707106	1.423629679433685	45.62876605433526	35.95404979909083	0	0
15.11999999999977	1.721700359685064	-1.352284502355966	41.37443678840094	0	0.9399999999999999	0	44.77351449124571	-9.999971023781862	-9.999135714814713	54.4943666686292	0.9511061221566331	0	0	0	44.77351449124571	-9.999971023781862	-9.999135714814713	54.4943666686292	0.9511061221566331	0	0	0	0.4211969700900744	-1.445039471293803	-0.159950370855165	83.06543877151961	-12.50661528383243	29.19463901098466	58.55890936134099	12.65065175034102	0	0	92.41433062693642	1.934317415926253	1.806950234089524	46.82059423389803	35.17868378156535	0	0
15.13999999999977	1.928022267028712	-1.167290539613589	41.28382831327495	0	0.9399999999999999	0	44.77361741024263	-9.999971069660647	-9.999136593570906	54.4945208515956	0.9511088131570473	0	0	0	44.77361741024263	-9.999971069660647	-9.999136593570906	54.4945208515956	0.9511088131570473	0	0	0	0.6977772579279956	-1.442829880439818	-0.2051233050931961	83.00884215883802	-13.31051333269071	29.59514737693217	58.95681033656091	12.07538938008934	0	0	92.391428579183	0.9650411115331001	2.222548485457375	47.84360875140217	35.12419108385928	0	0
15.15999999999977	2.006127377135009	-1.083681138487814	41.34817993946064	0	0.9399999999999999	0	44.77371712964932	-9.999971114080505	-9.999137444768834	54.49467019273574	0.9511114196516516	0	0	0	44.77371712964932	-9.999971114080505	-9.999137444768834	54.49467019273574	0.9511114196516516	0	0	0	0.8090690801679887	-1.431599322942947	-0.3676594967532788	82.76707904016274	-13.18442597056142	29.68148435726814	58.79343278458585	12.89220526449853	0	0	92.37769042351947	0.05632624549346107	2.491025997933126	47.97274906305223	34.32134825892456	0	0
